<?xml version="1.0" encoding="UTF-8"?>
<svg width="56px" height="91px" viewBox="0 0 56 91" version="1.1" xmlns="http://www.w3.org/2000/svg" xmlns:xlink="http://www.w3.org/1999/xlink">
    <!-- Generator: Sketch 50.2 (55047) - http://www.bohemiancoding.com/sketch -->
    <title>Fill 1</title>
    <desc>Created with Sketch.</desc>
    <defs></defs>
    <g id="Page-1" stroke="none" stroke-width="1" fill="none" fill-rule="evenodd">
        <g id="Logo-Lockups" transform="translate(-514.000000, -301.000000)" fill="#222222">
            <path d="M514,352.909663 L542.048197,392 L570.096394,352.909663 L542.048197,369.9718 L514,352.909663 Z M540.18399,383.243641 L527.314385,365.367363 L540.095034,373.13167 L540.18399,373.13167 L540.18399,383.243641 Z M543.823448,373.13167 L556.693053,365.278407 L543.823448,383.243641 L543.823448,373.13167 Z M570.007438,349.299212 L542.048197,301 L514,349.299212 L542.048197,366.361349 L570.007438,349.299212 Z M543.823448,311.291816 L562.906433,344.153303 L543.823448,335.936481 L543.823448,311.291816 Z M543.823448,339.910492 L563.97197,348.575961 L543.823448,360.944705 L543.823448,339.910492 Z M540.18399,360.944705 L520.035468,348.666851 L540.18399,339.999447 L540.18399,360.944705 Z M540.18399,335.936481 L521.101005,344.153303 L540.18399,311.291816 L540.18399,335.936481 Z" id="Fill-1"></path>
        </g>
    </g>
</svg>