<?xml version="1.0" encoding="UTF-8"?>
<svg width="262px" height="95px" viewBox="0 0 262 95" version="1.1" xmlns="http://www.w3.org/2000/svg" xmlns:xlink="http://www.w3.org/1999/xlink">
    <!-- Generator: Sketch 56.3 (81716) - https://sketch.com -->
    <title>Group</title>
    <desc>Created with Sketch.</desc>
    <g id="Page-1" stroke="none" stroke-width="1" fill="none" fill-rule="evenodd">
        <g id="Group" fill="#FFFFFF" fill-rule="nonzero">
            <path d="M1.66922491,72.9715155 L14.8131056,47.4919304 C17.6692805,41.9551978 16.8057267,35.229342 12.6434918,30.5937252 L9.09996405,26.6471828 C6.52363838,23.7778448 6.76117176,19.3632622 9.6305097,16.7869366 C10.911891,15.6364079 12.5732525,15 14.29536,15 L55.2557753,15 C63.5400465,15 70.2557753,21.7157288 70.2557753,30 C70.2557753,32.4179626 69.6712423,34.800089 68.5519828,36.9434045 L55.3187349,62.2842887 C52.4142625,67.8461809 53.2785363,74.6281796 57.4851006,79.2838666 L61.0172426,83.1931252 C63.6006957,86.0524061 63.3770931,90.4646138 60.5178122,93.0480669 C59.2353532,94.2068103 57.5684626,94.8483197 55.8400566,94.8483197 L15,94.8483197 C6.71572875,94.8483197 -1.53528514e-13,88.132591 -1.54543045e-13,79.8483197 C-1.54836053e-13,77.4557311 0.572334045,75.0978529 1.66922491,72.9715155 Z" id="Path-5"></path>
            <path d="M126.652862,95 C138.201785,95 119.351306,79.5104153 126.652862,71.6827052 C133.318109,64.5371574 166.652862,65.5424673 166.652862,55 C166.652862,32.90861 148.744252,15 126.652862,15 C104.561472,15 86.6528623,32.90861 86.6528623,55 C86.6528623,77.09139 104.561472,95 126.652862,95 Z" id="Oval-2"></path>
            <path d="M221.652862,94.9166646 C243.744252,94.9166646 261.652862,77.0080546 261.652862,54.9166646 C261.652862,39.1719496 261.652862,23.4272346 261.652862,7.68251955 C261.652862,3.43958116 258.213281,2.83147001e-14 253.970343,3.28626015e-14 C251.965364,3.50116888e-14 250.039826,0.783818202 248.604852,2.18410019 C236.743112,14.9166646 232.108452,14.9166646 221.652862,14.9166646 C200.163169,14.9166646 181.652862,32.8252746 181.652862,54.9166646 C181.652862,77.0080546 199.561472,94.9166646 221.652862,94.9166646 Z" id="Oval"></path>
        </g>
    </g>
</svg>