<?xml version="1.0" encoding="UTF-8"?>
<svg width="294px" height="299px" viewBox="0 0 294 299" version="1.1" xmlns="http://www.w3.org/2000/svg" xmlns:xlink="http://www.w3.org/1999/xlink">
    <!-- Generator: Sketch 56.3 (81716) - https://sketch.com -->
    <title>Path</title>
    <desc>Created with Sketch.</desc>
    <g id="Page-1" stroke="none" stroke-width="1" fill="none" fill-rule="evenodd">
        <path d="M72.4367273,152.156622 L73.1479087,286.827541 C73.1814485,293.178727 78.3572916,298.300191 84.7084776,298.266651 C86.5971563,298.256677 88.4543071,297.781679 90.1158442,296.883625 L287.946081,189.957206 C293.533443,186.93726 295.614745,179.959658 292.594799,174.372296 C290.96714,171.360877 288.082529,169.231103 284.725389,168.562131 L230.127274,157.682439 C224.748158,156.61055 220.874677,151.889051 220.874677,146.404178 L220.874677,12.1901754 C220.874677,5.83890075 215.725952,0.690175369 209.374677,0.690175369 C207.48285,0.690175369 205.62024,1.15689792 203.951944,2.04897404 L6.17909834,107.802656 C0.578267502,110.797549 -1.53426263,117.76576 1.46063023,123.366591 C3.07726109,126.389896 5.958492,128.534258 9.31863503,129.214927 L62.418637,139.97147 C68.2228547,141.147238 72.4054538,146.234596 72.4367273,152.156622 Z" id="Path" fill="#FFFFFF"></path>
    </g>
</svg>